REM GENRE Soundtrack
REM DATE 1972
REM DISCID B70E490E
REM COMMENT "ExactAudioCopy v0.99pb4"
PERFORMER "Various"
TITLE "Journey Through The Past"
FILE "Various - Journey Through The Past\01 - For What's It Worth,Mr. Soul.wav" WAVE
  TRACK 01 AUDIO
    TITLE "For What's It Worth/Mr. Soul"
    PERFORMER "Buffalo Springfield"
    INDEX 01 00:00:00
FILE "Various - Journey Through The Past\02 - Rock & Roll Woman.wav" WAVE
  TRACK 02 AUDIO
    TITLE "Rock & Roll Woman"
    PERFORMER "Buffalo Springfield"
    INDEX 01 00:00:00
FILE "Various - Journey Through The Past\03 - Find The Cost Of Freedom.wav" WAVE
  TRACK 03 AUDIO
    TITLE "Find The Cost Of Freedom"
    PERFORMER "Crosby, Stills, Nash & Young"
    INDEX 01 00:00:00
FILE "Various - Journey Through The Past\04 - Ohio.wav" WAVE
  TRACK 04 AUDIO
    TITLE "Ohio"
    PERFORMER "Crosby, Stills, Nash & Young"
    INDEX 01 00:00:00
FILE "Various - Journey Through The Past\05 - Southern Man.wav" WAVE
  TRACK 05 AUDIO
    TITLE "Southern Man"
    PERFORMER "Crosby, Stills, Nash & Young"
    INDEX 01 00:00:00
FILE "Various - Journey Through The Past\06 - Are You Ready For The Country .wav" WAVE
  TRACK 06 AUDIO
    TITLE "Are You Ready For The Country?"
    PERFORMER "Crosby, Stills, Nash & Young"
    INDEX 01 00:00:00
